# AST/ASF file generated using VICON BodyLanguage
# -----------------------------------------------
:version 1.10
:name VICON
:units
  mass 1.0
  length 0.45
  angle deg
:documentation
   .ast/.asf automatically generated from VICON data using
   VICON BodyBuilder and BodyLanguage model FoxedUp or BRILLIANT.MOD
:root
   order TX TY TZ RX RY RZ
   axis XYZ
   position 0 0 0  
   orientation 0 -0 0 
:bonedata
  begin
     id 1 
     name lhipjoint
     direction 0.515797 -0.759363 0.396637 
     length 2.47888 
     axis 0 -0 0  XYZ
  end
  begin
     id 2 
     name lfemur
     direction 0.34202 -0.939693 0  
     length 6.81885  
     axis 0 -0 20  XYZ
    dof rx ry rz
    limits (-160.0 20.0)
           (-70.0 70.0)
           (-60.0 70.0)
  end
  begin
     id 3 
     name ltibia
     direction 0.342037 -0.939687 0   
     length 7.89258   
     axis 0 -0 20   XYZ
    dof rx
    limits (-10.0 170.0)
  end
  begin
     id 4 
     name lfoot
     direction 0.173497 -0.476678 0.861787   
     length 2.51543   
     axis -90 -1.13533e-015 20   XYZ
    dof rx rz
    limits (-45.0 90.0)
           (-70.0 20.0)
  end
  begin
     id 5 
     name ltoes
     direction 1.53564e-011 -4.21897e-011 1   
     length 1.21388   
     axis -90 -1.13533e-015 20   XYZ
    dof rx
    limits (-90.0 20.0)
  end
  begin
     id 6 
     name rhipjoint
     direction -0.489454 -0.772941 0.403729   
     length 2.43534  
     axis 0 -0 0  XYZ 
  end
  begin
     id 7 
     name rfemur
     direction -0.34202 -0.939693 0   
     length 7.10357   
     axis 0 -0 -20   XYZ
    dof rx ry rz
    limits (-160.0 20.0)
           (-70.0 70.0)
           (-70.0 60.0)
  end
  begin
     id 8 
     name rtibia
     direction -0.34202 -0.939693 0   
     length 9.16127   
     axis 0 -0 -20   XYZ
    dof rx
    limits (-10.0 170.0)
 end
 begin
     id 9 
     name rfoot
     direction -0.270974 -0.748671 0.605033   
     length 1.74894  
     axis -90 1.13533e-015 -20   XYZ
    dof rx rz
    limits (-45.0 90.0)
           (-20.0 70.0)
  end
  begin
     id 10 
     name rtoes
     direction -1.53557e-011 -4.21759e-011 1   
     length 0.787585   
     axis -90 1.13533e-015 -20   XYZ
    dof rx
    limits (-90.0 20.0)
  end
  begin
     id 11 
     name lowerback
     direction -0.0140249 0.999561 0.0260968   
     length 2.16963   
     axis 0 -0 0   XYZ
    dof rx ry rz
    limits (-20.0 45.0)
           (-30.0 30.0)
           (-30.0 30.0)
  end
  begin
     id 12 
     name upperback
     direction 0.00860018 0.999959 -0.002711   
     length 2.1726   
     axis 0 -0 0   XYZ
    dof rx ry rz
    limits (-20.0 45.0)
           (-30.0 30.0)
           (-30.0 30.0)
  end
  begin
     id 13 
     name thorax
     direction 0.015211 0.999782 -0.0143191   
     length 2.17061   
     axis 0 -0 0   XYZ
    dof rx ry rz
    limits (-20.0 45.0)
           (-30.0 30.0)
           (-30.0 30.0)
  end
  begin
     id 14 
     name lowerneck
     direction -0.0140143 0.999447 0.030145   
     length 2.26749   
     axis 0 -0 0   XYZ
    dof rx ry rz
    limits (-20.0 45.0)
           (-30.0 30.0)
           (-30.0 30.0)
  end
  begin
     id 15 
     name upperneck
     direction 0.118062 0.961438 -0.248392   
     length 2.22728   
     axis 0 -0 0   XYZ
    dof rx ry rz
    limits (-20.0 45.0)
           (-30.0 30.0)
           (-30.0 30.0)
  end
  begin
     id 16
     name head
     direction 0.0431885 0.9954 -0.085514  
     length 2.28786  
     axis 0 -0 0   XYZ
    dof rx ry rz
    limits (-20.0 45.0)
           (-30.0 30.0)
           (-30.0 30.0)
  end
  begin
     id 17 
     name lclavicle
     direction 0.912126 0.409548 0.0172323  
     length 4.31571  
     axis 0 -0 0   XYZ
    dof ry rz
    limits (-20.0 10.0)
           (0.0 20.0)
  end
  begin
     id 18 
     name lhumerus
     direction 1 -4.48977e-011 1.93091e-027   
     length 5.13658   
     axis 180 -30 -90   XYZ
    dof rx ry rz
    limits (-60.0 90.0)
           (-90.0 90.0)
           (-90.0 90.0)
  end
  begin
     id 19
     name lradius
     direction 1 -4.48916e-011 6.84018e-027   
     length 3.22473   
     axis 180 -30 -90   XYZ
    dof rx
    limits (-10.0 170.0)
  end
  begin
     id 20
     name lwrist
     direction 1 -4.48987e-011 7.01981e-027   
     length 1.61236   
     axis -4.37994e-015 90 90   XYZ
    dof ry
    limits (-180.0 0.0)
 end
  begin
     id 21 
     name lhand
     direction 1 -4.49037e-011 1.40335e-026   
     length 0.936406   
     axis -8.96029e-015 90 90   XYZ
    dof rx rz
    limits (-90.0 90.0)
           (-45.0 45.0)
  end
  begin
     id 22 
     name lfingers
     direction 1 -4.48886e-011 2.8104e-026   
     length 0.754955   
     axis -1.79203e-014 90 90   XYZ
    dof rx
    limits (0.0 90.0)
  end
  begin
     id 23
     name lthumb
     direction 0.707107 -6.34937e-011 0.707107   
     length 1.08397   
     axis -90 45 -4.48555e-014   XYZ
    dof rx rz
    limits (-45.0 45.0)
           (-45.0 45.0)
  end
  begin
     id 24 
     name rclavicle
     direction -0.947962 0.317997 0.0156638   
     length 4.86918  
     axis 0 -0 0   XYZ 
    dof ry rz
    limits (-10.0 20.0)
           (-20.0 0.0)
  end
  begin
     id 25 
     name rhumerus
     direction -1 -4.48951e-011 2.80534e-018  
     length 5.60911   
     axis 180 30 90   XYZ
    dof rx ry rz
    limits (-90.0 60.0)
           (-90.0 90.0)
           (-90.0 90.0)
  end
  begin
     id 26 
     name rradius
     direction -1 -4.4898e-011 2.11315e-027   
     length 3.38704   
     axis 180 30 90   XYZ
    dof rx
    limits (-10.0 170.0)
  end
  begin
     id 27 
     name rwrist
     direction -1 -4.48933e-011 7.02314e-027   
     length 1.69352   
     axis -4.37994e-015 -90 -90   XYZ
    dof ry
    limits (-180.0 0.0)
  end
  begin
     id 28
     name rhand
     direction -1 -4.48937e-011 1.40458e-026   
     length 0.755878   
     axis -8.96029e-015 -90 -90   XYZ
    dof rx rz
    limits (-90.0 90.0)
           (-45.0 45.0)
  end
  begin
     id 29
     name rfingers
     direction -1 -4.4901e-011 2.80737e-026   
     length 0.609409   
     axis -1.79203e-014 -90 -90   XYZ
    dof rx
    limits (0.0 90.0)
  end
  begin
     id 30
     name rthumb
     direction -0.707107 -6.34968e-011 0.707107   
     length 0.874992   
     axis -90 -45 4.48555e-014   XYZ
    dof rx rz
    limits (-45.0 45.0)
           (-45.0 45.0)
  end
:hierarchy
  begin
    root lhipjoint rhipjoint lowerback
    lhipjoint lfemur
    lfemur ltibia
    ltibia lfoot
    lfoot ltoes
    rhipjoint rfemur
    rfemur rtibia
    rtibia rfoot
    rfoot rtoes
    lowerback upperback
    upperback thorax
    thorax lowerneck lclavicle rclavicle
    lowerneck upperneck
    upperneck head
    lclavicle lhumerus
    lhumerus lradius
    lradius lwrist
    lwrist lhand lthumb
    lhand lfingers
    rclavicle rhumerus
    rhumerus rradius
    rradius rwrist
    rwrist rhand rthumb
    rhand rfingers
  end

#!OML:ASF C:\ViconDB\ViconDB\414\Spring2016\041811\Spring2016.ASF
:FULLY-SPECIFIED
:DEGREES
47
root 9.8209 15.4962 10.153 -158.537 -5.80355 -179.862
lowerback 29.8155 0.712575 0.0353912
upperback 4.83199 -0.202503 -0.060817
thorax -11.0043 -0.553505 0.0763994
lowerneck -12.7818 -6.04241 -14.1332
upperneck -1.41179 -7.48912 21.2762
head 3.17903 -3.40085 8.4869
rclavicle -1.11816e-014 9.93923e-017
rhumerus -51.6225 -25.1117 -71.5386
rradius 31.9859
rwrist 39.2927
rhand -35.7408 -12.3944
rfingers 7.12502
rthumb -8.8597 -42.1884
lclavicle -1.11816e-014 9.93923e-017
lhumerus -42.9064 8.24737 70.4391
lradius 15.8698
lwrist -37.5339
lhand -31.316 16.0992
lfingers 7.12502
lthumb -4.58824 46.0295
rfemur -62.054 -15.5467 27.0865
rtibia 75.2834
rfoot 0.966797 -14.4932
rtoes -6.26032
lfemur -65.3983 10.5744 -17.8007
ltibia 77.5147
lfoot -32.584 -2.48301
ltoes -14.1362
48
root 9.80993 15.4425 10.0754 -158.511 -5.75359 -179.942
lowerback 29.4697 0.714086 -0.0847061
upperback 4.74522 -0.206063 -0.066761
thorax -10.9313 -0.538408 0.136907
lowerneck -12.8522 -6.03877 -14.421
upperneck -1.32632 -7.47035 21.5516
head 3.2401 -3.38122 8.63306
rclavicle 6.01324e-015 1.02374e-014
rhumerus -50.8509 -28.3431 -70.1094
rradius 31.0323
rwrist 41.3077
rhand -37.1602 -12.5813
rfingers 7.12502
rthumb -10.2292 -42.3126
lclavicle 6.01324e-015 1.02374e-014
lhumerus -41.6764 8.48426 71.3323
lradius 16.2742
lwrist -36.5597
lhand -31.9153 15.6343
lfingers 7.12502
lthumb -5.16694 45.5513
rfemur -62.0789 -15.5364 26.8804
rtibia 75.8913
rfoot 1.41066 -14.7333
rtoes -6.21464
lfemur -65.4468 10.5482 -17.8745
ltibia 78.133
lfoot -33.0738 -2.26811
ltoes -14.1488
49
root 9.80252 15.4005 9.99603 -158.594 -5.69978 -180.093
lowerback 29.3014 0.684422 -0.207842
upperback 4.64717 -0.269333 -0.171808
thorax -10.9604 -0.55482 0.110575
lowerneck -12.9478 -6.05438 -14.2975
upperneck -1.28713 -7.50706 21.4865
head 3.26518 -3.39678 8.58311
rclavicle 8.84592e-015 -5.11871e-015
rhumerus -50.3599 -32.2197 -68.3541
rradius 30.069
rwrist 44.2558
rhand -39.0415 -11.6576
rfingers 7.12502
rthumb -12.0437 -41.291
lclavicle 8.84592e-015 -5.11871e-015
lhumerus -40.7408 5.25317 74.2636
lradius 18.362
lwrist -31.5395
lhand -32.0378 16.0529
lfingers 7.12502
lthumb -5.28522 45.967
rfemur -61.8741 -15.4685 26.5598
rtibia 76.3943
rfoot 1.90261 -14.8666
rtoes -6.05517
lfemur -65.2369 10.4572 -17.961
ltibia 78.6317
lfoot -33.5764 -2.03847
ltoes -14.5676
50
root 9.78767 15.3677 9.88873 -158.803 -5.29597 -180.072
lowerback 28.8817 0.852407 -0.542891
upperback 4.63274 -0.132433 -0.13391
thorax -10.7663 -0.473369 0.293073
lowerneck -13.0961 -6.0725 -14.3828
upperneck -1.19444 -7.5015 21.374
head 3.31144 -3.38288 8.55824
rclavicle -5.56597e-015 -2.99668e-014
rhumerus -49.3142 -35.4849 -67.2351
rradius 29.1509
rwrist 46.2761
rhand -40.6816 -12.0945
rfingers 7.12502
rthumb -13.6248 -41.6286
lclavicle -5.56597e-015 -2.99668e-014
lhumerus -39.6908 4.08643 75.9123
lradius 19.8893
lwrist -29.2638
lhand -32.3326 15.5221
lfingers 7.12502
lthumb -5.56986 45.4289
rfemur -61.3122 -15.2424 26.2499
rtibia 76.6888
rfoot 2.30278 -15.1653
rtoes -5.99485
lfemur -64.6437 10.6943 -17.9628
ltibia 79.0029
lfoot -34.227 -1.73474
ltoes -15.0455
51
root 9.79765 15.3405 9.81642 -159.154 -5.82746 -180.367
lowerback 29.0752 0.66705 -0.845832
upperback 4.5986 -0.442648 0.057311
thorax -10.8992 -0.599996 0.802798
lowerneck -13.4455 -6.10171 -14.7257
upperneck -1.13243 -7.45773 21.3684
head 3.39104 -3.34173 8.61713
rclavicle 6.85807e-015 7.45443e-016
rhumerus -47.8234 -38.3541 -66.729
rradius 28.5671
rwrist 47.7052
rhand -42.385 -12.51
rfingers 7.12502
rthumb -15.2661 -41.9266
lclavicle 6.85807e-015 7.45443e-016
lhumerus -38.59 2.6666 77.6825
lradius 21.5981
lwrist -27.1791
lhand -32.8959 15.1431
lfingers 7.12502
lthumb -6.11368 45.0349
rfemur -60.6129 -15.6704 25.9479
rtibia 76.9354
rfoot 2.95881 -15.2528
rtoes -5.94418
lfemur -64.0282 10.1946 -17.9593
ltibia 79.1981
lfoot -34.6017 -1.487
ltoes -15.5947
52
root 9.80079 15.3243 9.72819 -159.226 -6.1049 -180.395
lowerback 28.8191 0.478042 -0.796497
upperback 4.34968 -0.622603 -0.0480165
thorax -11.0543 -0.660986 0.717507
lowerneck -13.3275 -6.0299 -14.32
upperneck -1.10525 -7.43983 21.2265
head 3.35211 -3.34469 8.49962
rclavicle 1.67973e-014 1.83876e-014
rhumerus -46.3845 -40.4394 -67.3139
rradius 28.4172
rwrist 48.2413
rhand -43.9388 -12.8433
rfingers 7.12502
rthumb -16.7622 -42.1397
lclavicle 1.67973e-014 1.83876e-014
lhumerus -37.7258 0.515839 78.9217
lradius 23.7122
lwrist -24.61
lhand -33.08 14.8941
lfingers 7.12502
lthumb -6.29142 44.7806
rfemur -60.0983 -15.6352 25.8541
rtibia 77.0008
rfoot 3.57566 -15.1657
rtoes -5.86079
lfemur -63.6462 9.86715 -17.7692
ltibia 79.3163
lfoot -34.9607 -1.26135
ltoes -15.8109
53
root 9.78571 15.327 9.6158 -159.605 -5.85829 -180.565
lowerback 28.5796 0.534959 -1.05761
upperback 4.31918 -0.628228 -0.156643
thorax -10.9674 -0.652218 0.744013
lowerneck -13.4709 -6.05796 -14.3136
upperneck -1.10724 -7.48104 21.2779
head 3.38554 -3.36203 8.50923
rclavicle -5.96354e-015 7.95139e-015
rhumerus -44.0677 -41.7952 -68.711
rradius 28.5995
rwrist 48.2322
rhand -45.256 -13.2904
rfingers 7.12502
rthumb -18.03 -42.4747
lclavicle -5.96354e-015 7.95139e-015
lhumerus -36.71 -1.98314 80.2557
lradius 25.9665
lwrist -22.3345
lhand -33.4679 14.2229
lfingers 7.12502
lthumb -6.66588 44.098
rfemur -59.0193 -15.6066 25.3191
rtibia 76.8802
rfoot 3.91269 -15.3914
rtoes -5.76385
lfemur -62.5242 9.66195 -17.8312
ltibia 79.2378
lfoot -35.5381 -0.693943
ltoes -16.1476
54
root 9.77315 15.3332 9.50343 -159.857 -5.66105 -180.731
lowerback 28.2766 0.553146 -1.38578
upperback 4.18378 -0.67002 -0.185034
thorax -10.9658 -0.645548 0.912477
lowerneck -13.6275 -6.09885 -14.278
upperneck -1.03458 -7.52375 21.1215
head 3.4287 -3.37591 8.44245
rclavicle -6.65929e-015 -1.39149e-014
rhumerus -41.0111 -41.2451 -71.3002
rradius 29.3777
rwrist 46.9615
rhand -46.1817 -13.8419
rfingers 7.12502
rthumb -18.9205 -42.9417
lclavicle -6.65929e-015 -1.39149e-014
lhumerus -35.5814 -3.70408 81.1122
lradius 28.1413
lwrist -21.1751
lhand -33.821 13.5471
lfingers 7.12502
lthumb -7.00678 43.4111
rfemur -58.0335 -15.4208 24.819
rtibia 76.6513
rfoot 4.38874 -15.4518
rtoes -5.89826
lfemur -61.5444 9.49038 -17.9102
ltibia 79.077
lfoot -36.0089 -0.257541
ltoes -16.4436
